<?xml version="1.0" encoding="UTF-8"?>
<svg width="107px" height="29px" viewBox="0 0 107 29" version="1.1" xmlns="http://www.w3.org/2000/svg" xmlns:xlink="http://www.w3.org/1999/xlink">
    <title>Logos / Truora / _Main</title>
    <defs>
        <linearGradient x1="-0.0303490137%" y1="50%" x2="100%" y2="50%" id="linearGradient-1">
            <stop stop-color="#6300FF" offset="0%"></stop>
            <stop stop-color="#0000FF" offset="100%"></stop>
        </linearGradient>
        <linearGradient x1="0.017545159%" y1="49.9775906%" x2="99.9613221%" y2="49.9775906%" id="linearGradient-2">
            <stop stop-color="#6300FF" offset="0%"></stop>
            <stop stop-color="#0000FF" offset="100%"></stop>
        </linearGradient>
        <linearGradient x1="-0.0101801894%" y1="49.9291355%" x2="99.9898198%" y2="49.9291355%" id="linearGradient-3">
            <stop stop-color="#6300FF" offset="0%"></stop>
            <stop stop-color="#0000FF" offset="100%"></stop>
        </linearGradient>
        <radialGradient cx="52.4590583%" cy="51.3183536%" fx="52.4590583%" fy="51.3183536%" r="55.3015107%" gradientTransform="translate(0.524591,0.513184),scale(0.907749,1.000000),translate(-0.524591,-0.513184)" id="radialGradient-4">
            <stop stop-color="#030238" offset="0%"></stop>
            <stop stop-color="#4500FF" offset="100%"></stop>
        </radialGradient>
        <linearGradient x1="-0.0303490133%" y1="49.9590667%" x2="99.9999987%" y2="49.9590667%" id="linearGradient-5">
            <stop stop-color="#6300FF" offset="0%"></stop>
            <stop stop-color="#0000FF" offset="100%"></stop>
        </linearGradient>
    </defs>
    <g id="Mobile-version" stroke="none" stroke-width="1" fill="none" fill-rule="evenodd">
        <g id="-Proposal-B-(R)-5" transform="translate(-176.000000, -461.000000)">
            <g id="Group-4" transform="translate(92.000000, 461.000000)">
                <g id="Logos-/-Truora-/-_Main" transform="translate(84.000000, 0.000000)">
                    <g id="Logos-/-Truora-/-T-Color">
                        <g>
                            <path d="M19.0375026,0.00164895868 L19.0375026,0.00164895868 C13.9468447,0.0400321589 9.79216476,4.09695987 9.6191802,9.19837493 L9.53652962,9.19837493 L9.53652962,28.5246046 C13.463372,28.5237319 16.9845585,26.0992923 18.3955189,22.424932 C18.3109463,22.424932 18.2244515,22.424932 18.1379567,22.424932 C16.0821557,22.4275575 14.1998637,21.2698856 13.2704771,19.4312712 C12.3410904,17.5926568 12.5228212,15.3860925 13.7404208,13.7252455 C14.9580202,12.0643984 17.0042129,11.2319996 19.0317363,11.5727183 L19.0317363,9.51444009 L19.1066984,9.51444009 C24.3222201,9.47844894 28.5324537,5.23118602 28.5365534,0.00164895868 L19.0375026,0.00164895868 Z" id="Path" fill="url(#linearGradient-1)" fill-rule="nonzero"></path>
                            <path d="M17.7354464,19.9124103 L16.1071099,18.3957448 C15.719311,18.0346658 15.4902632,17.5334554 15.4704301,17.0025395 C15.450597,16.4716235 15.6416058,15.9545645 16.0013738,15.56528 L16.0013738,15.56528 L17.7796633,17.2229857 L22.5858512,13.1231588 C23.4278758,12.4064295 24.6869225,12.503762 25.4099672,13.3414813 L25.4099672,13.3414813 L17.7354464,19.9124103 Z" id="Path" fill="url(#linearGradient-2)" fill-rule="nonzero"></path>
                            <path d="M9.47438912,0.00164895868 L9.47438912,0.00164895868 C4.27249739,0.043809662 0.077484676,4.27610782 0.0766021634,9.48296386 L18.9162882,9.48296386 L18.9162882,0.00164895868 L9.47438912,0.00164895868 Z" id="Path" fill="url(#linearGradient-3)" fill-rule="nonzero"></path>
                            <path d="M12.6366325,16.5923509 C12.6674165,16.5902596 12.6714192,16.3306129 12.7358424,15.9562453 C12.7741725,15.733506 12.8401242,15.4690675 12.9287022,15.1970934 C13.0786822,14.7365876 13.3225423,14.2413931 13.6348296,13.7907368 C13.7852305,13.5736961 13.9539233,13.3677734 14.1308108,13.1793027 C14.2538152,13.0482435 14.3798919,12.9253567 14.5102528,12.8141512 C14.6940175,12.6573893 14.8793964,12.5142091 15.0698669,12.3866696 C15.6223836,12.0167033 16.2046632,11.7681573 16.8119303,11.6214432 C17.1228091,11.5463357 17.5523268,11.4663453 18.1054818,11.4692808 C18.2244435,11.4699121 18.3985306,11.4729873 18.623583,11.4954428 C18.6963116,11.5026996 18.8171757,11.5189716 18.9861751,11.5442588 C18.9774534,10.1939116 18.9774534,9.51269624 18.9861751,9.50061254 C19.7610875,8.42698937 22.1591977,8.77127511 22.7675815,8.54742782 C22.890997,8.50201857 22.8289826,7.8410967 22.8289826,7.48003655 C22.8289826,4.39133481 21.3033699,1.65988044 18.9664304,0.00164895868 C17.3935843,0.00145221603 11.8424641,0.00164895868 9.32562847,0.00164895868 C8.99841215,0.00938654158 8.51320197,0.0758003109 8.31260541,0.085482832 C6.04131194,1.75090058 4.56605926,4.44274123 4.56605926,7.48003655 C4.56605926,8.17345624 4.79092648,8.8455978 5.24066092,9.49646107 C5.65745544,9.49646107 7.08169719,9.49646107 9.51338623,9.49646107 C9.51338623,11.2591962 9.51338623,12.3137893 9.51338623,12.6602402 C9.51338623,13.8055748 9.51338623,15.1216029 9.51338623,15.6179895 C10.6630609,16.2159652 11.6217372,16.534106 12.4179907,16.5851884 C12.4924226,16.5899635 12.565468,16.5971853 12.6366325,16.5923509 Z" id="sombra" fill="url(#radialGradient-4)" fill-rule="nonzero"></path>
                            <path d="M19.0375023,0.00164895868 L19.0375023,0.00164895868 C13.9468446,0.039974579 9.79216476,4.09081636 9.6191802,9.18457859 L9.53652962,18.8062569 C9.53652962,13.6719607 13.6938777,9.50979132 18.8222264,9.50979132 L19.031736,9.50979132 L19.031736,9.50979132 L19.1066982,9.50979132 C24.3259661,9.47382688 28.5377331,5.2270934 28.5365537,0.00164895868 L19.0375023,0.00164895868 Z" id="Path" fill="url(#linearGradient-5)" fill-rule="nonzero"></path>
                        </g>
                    </g>
                    <g id="Group" transform="translate(32.548564, 5.135712)" fill="#1C1C1E">
                        <path d="M11.3001044,3.40247183 L9.0971894,3.40247183 L9.0971894,14.3693449 C9.09493715,16.3353555 7.50430319,17.9285596 5.54146396,17.9308154 L5.54146396,17.9308154 L5.54146396,3.40247183 L0.0321329685,3.40247183 C0.0321329685,1.56439483 1.51978516,0.0743390396 3.35489712,0.0743390396 L14.6228685,0.0743390396 C14.6228685,1.91241604 13.1352163,3.40247183 11.3001044,3.40247183 Z" id="Path" fill-rule="nonzero"></path>
                        <path d="M23.1207695,5.476398 L22.6268094,8.77024795 C21.9895031,8.507267 21.3077298,8.36871952 20.6183108,8.36208812 C19.0792784,8.36208812 18.021959,9.30493732 18.021959,11.137575 L18.021959,14.5293833 C18.0230425,15.4101687 17.6738498,16.2552503 17.0513138,16.8784427 C16.4287778,17.5016351 15.5839779,17.8518045 14.7030374,17.8518045 L14.7030374,17.8518045 L14.7030374,5.54170364 L17.9199011,5.54170364 L17.9199011,6.88863111 C18.6955408,5.72945717 19.8794119,5.21109414 21.3939505,5.21109414 C21.9805581,5.19921025 22.5647943,5.28897069 23.1207695,5.476398 Z" id="Path" fill-rule="nonzero"></path>
                        <path d="M60.5596349,5.47644831 L60.0618335,8.77028487 C59.424836,8.50730499 58.743394,8.36875807 58.0543085,8.3621267 C56.5160223,8.3621267 55.4592152,9.30497207 55.4592152,11.1376023 L55.4592152,14.5293968 C55.4602983,15.4101786 55.1112753,16.2552568 54.489041,16.8784467 C53.8668067,17.5016366 53.0224165,17.8518045 52.1419028,17.8518045 L52.1419028,17.8518045 L52.1419028,5.54175368 L55.3612876,5.54175368 L55.3612876,6.88867568 C56.1365512,5.72950645 57.315768,5.21114553 58.8295721,5.21114553 C59.4172504,5.19895397 60.0025964,5.28871594 60.5596349,5.47644831 L60.5596349,5.47644831 Z" id="Path" fill-rule="nonzero"></path>
                        <path d="M36.1040601,12.6773013 C36.1040601,16.568642 33.3667337,18.2468593 30.2999512,18.2468593 C27.2331688,18.2468593 24.4836404,16.568642 24.4836404,12.6773013 L24.4836404,5.60510607 L27.7985312,5.60510607 L27.7985312,12.3873903 C27.7985312,14.3596018 28.8723111,15.1599195 30.3040186,15.1599195 C31.735726,15.1599195 32.8135733,14.3432688 32.8135733,12.3873903 L32.8135733,5.60918928 L36.1081275,5.60918928 L36.1040601,12.6773013 Z" id="Path" fill-rule="nonzero"></path>
                        <path d="M73.9396578,17.8511775 L70.6965013,17.8511775 L70.6965013,16.4895111 C69.8021616,17.5939382 68.4387188,18.2146153 67.0157444,18.1650945 C63.6130885,18.1650945 61.0406482,15.384686 61.0406482,11.6910642 C61.0406482,7.99744237 63.6130885,5.21295706 67.0157444,5.21295706 C68.4417524,5.16181774 69.8075383,5.78810004 70.6965013,6.90077101 L70.6965013,6.90077101 C70.6987553,6.15033602 71.3096613,5.54317813 72.0624721,5.54318155 L73.9478373,5.54318155 L73.9396578,17.8511775 Z M64.4187655,11.6910642 C64.4187655,13.5704899 65.6456848,15.0789227 67.6046655,15.0789227 C69.5636463,15.0789227 70.7905655,13.6316426 70.7905655,11.6910642 C70.7905655,9.75048582 69.5063898,8.29912892 67.6046655,8.29912892 C65.7029403,8.29912892 64.4187655,9.8075617 64.4187655,11.6910642 L64.4187655,11.6910642 Z" id="Shape" fill-rule="nonzero"></path>
                        <path d="M44.1549307,5.36825627 C45.0212877,5.36165291 45.8797396,5.53374637 46.6769194,5.87383839 C47.4422923,6.20277767 48.1391326,6.67303929 48.7311204,7.26011182 C49.3185988,7.85117928 49.7868061,8.55029353 50.1100788,9.31913564 C50.4509929,10.1178216 50.6240791,10.9783473 50.6185439,11.847046 C50.6245344,12.7105195 50.4513833,13.565813 50.1100788,14.3586473 C49.782871,15.125353 49.3151363,15.8237621 48.7311204,16.4176711 C48.1439345,17.0136641 47.4460949,17.4887551 46.6769194,17.8161763 C45.0639446,18.4957682 43.2459159,18.4957682 41.6329411,17.8161763 C40.8710197,17.4864477 40.1802678,17.0114793 39.5990798,16.4176711 C39.0150638,15.8237621 38.5473292,15.125353 38.2201214,14.3586473 C37.8788168,13.565813 37.7056648,12.7105195 37.7116553,11.847046 C37.7061201,10.9783473 37.8792072,10.1178216 38.2201214,9.31913564 C38.5433931,8.55029353 39.0116004,7.85117928 39.5990798,7.26011182 C40.1850295,6.6751454 40.8748058,6.20499659 41.6329411,5.87383839 C42.4301218,5.53374637 43.2885737,5.36165291 44.1549307,5.36825627 Z M44.1549307,8.41398062 C43.2501308,8.39651144 42.3784608,8.75514855 41.7468379,9.40475839 C41.0872126,10.0453982 40.7207208,10.9305832 40.7339745,11.8511233 C40.7320728,12.2956384 40.8220998,12.7357249 40.9983769,13.1436194 C41.1818148,13.557656 41.4349996,13.936946 41.7468379,14.2648699 C42.3756795,14.9214224 43.2469591,15.2887505 44.1549307,15.2801114 C44.6028158,15.2816193 45.0465774,15.1943216 45.4606698,15.0232431 C45.8786004,14.8534976 46.2547327,14.5947345 46.5630235,14.2648699 C47.5434857,13.2878534 47.8390229,11.8144458 47.311458,10.5335262 C46.7838931,9.25260667 45.537465,8.41726499 44.1549307,8.41805786 L44.1549307,8.41398062 Z" id="Shape" fill-rule="nonzero"></path>
                    </g>
                </g>
            </g>
        </g>
    </g>
</svg>